<svg width="2918" height="321" viewBox="0 0 2918 321" fill="none" xmlns="http://www.w3.org/2000/svg">
<path d="M46.7428 275.453C15.5809 245.088 0 206.77 0 160.5C0 114.23 15.5809 75.9122 46.7428 45.5473C77.9046 15.1824 116.424 0 162.301 0C214.815 0 255.787 18.5081 285.218 55.5243C298.202 71.4297 307.723 89.7932 313.783 110.615H264.01C258.817 99.0473 251.603 88.6365 242.37 79.3824C221.307 58.2716 194.617 47.7162 162.301 47.7162C129.697 47.7162 103.152 58.127 82.6655 78.9486C62.1794 99.7703 51.9364 126.954 51.9364 160.5C51.9364 194.046 62.1794 221.23 82.6655 242.051C103.152 262.873 129.697 273.284 162.301 273.284C195.483 273.284 222.75 261.716 244.101 238.581C253.623 228.749 260.981 217.181 266.174 203.878H315.947C308.445 226.435 297.913 245.955 284.352 262.439C254.344 301.48 213.661 321 162.301 321C116.424 321 77.9046 305.818 46.7428 275.453Z" fill="white"/>
<path d="M363.42 312.324V8.67567H413.192V264.608H566.837V312.324H363.42Z" fill="white"/>
<path d="M618.101 275.019C587.227 244.365 571.791 206.192 571.791 160.5C571.791 114.808 587.227 76.6351 618.101 45.9811C648.974 15.327 687.638 0 734.092 0C780.546 0 819.21 15.327 850.083 45.9811C880.957 76.6351 896.393 114.808 896.393 160.5C896.393 206.192 880.957 244.365 850.083 275.019C819.21 305.673 780.546 321 734.092 321C687.638 321 648.974 305.673 618.101 275.019ZM654.456 78.9486C633.97 99.7703 623.727 126.954 623.727 160.5C623.727 194.046 633.97 221.23 654.456 242.051C674.942 262.873 701.487 273.284 734.092 273.284C766.408 273.284 792.809 262.873 813.295 242.051C834.07 221.23 844.457 194.046 844.457 160.5C844.457 126.954 834.07 99.7703 813.295 78.9486C792.809 58.127 766.408 47.7162 734.092 47.7162C701.487 47.7162 674.942 58.127 654.456 78.9486Z" fill="white"/>
<path d="M979.958 275.453C948.796 245.088 933.215 206.77 933.215 160.5C933.215 114.23 948.796 75.9122 979.958 45.5473C1011.12 15.1824 1049.64 0 1095.52 0C1148.03 0 1189 18.5081 1218.43 55.5243C1231.42 71.4297 1240.94 89.7932 1247 110.615H1197.23C1192.03 99.0473 1184.82 88.6365 1175.59 79.3824C1154.52 58.2716 1127.83 47.7162 1095.52 47.7162C1062.91 47.7162 1036.37 58.127 1015.88 78.9486C995.395 99.7703 985.152 126.954 985.152 160.5C985.152 194.046 995.395 221.23 1015.88 242.051C1036.37 262.873 1062.91 273.284 1095.52 273.284C1128.7 273.284 1155.97 261.716 1177.32 238.581C1186.84 228.749 1194.2 217.181 1199.39 203.878H1249.16C1241.66 226.435 1231.13 245.955 1217.57 262.439C1187.56 301.48 1146.88 321 1095.52 321C1049.64 321 1011.12 305.818 979.958 275.453Z" fill="white"/>
<path d="M1288.61 312.324V8.67567H1338.39V134.473H1388.16L1479.05 8.67567H1537.48L1431.44 153.993L1541.8 312.324H1481.21L1390.32 182.189H1338.39V312.324H1288.61Z" fill="white"/>
<path d="M1572.26 8.67567H1624.2L1677 268.946H1683.49L1734.56 8.67567H1810.3L1863.54 268.946H1870.03L1920.67 8.67567H1970.44L1907.69 312.324H1827.62L1775.68 62.8986H1769.19L1719.42 312.324H1637.18L1572.26 8.67567Z" fill="white"/>
<path d="M2035.73 275.019C2004.85 244.365 1989.42 206.192 1989.42 160.5C1989.42 114.808 2004.85 76.6351 2035.73 45.9811C2066.6 15.327 2105.26 0 2151.72 0C2198.17 0 2236.84 15.327 2267.71 45.9811C2298.58 76.6351 2314.02 114.808 2314.02 160.5C2314.02 206.192 2298.58 244.365 2267.71 275.019C2236.84 305.673 2198.17 321 2151.72 321C2105.26 321 2066.6 305.673 2035.73 275.019ZM2072.08 78.9486C2051.6 99.7703 2041.35 126.954 2041.35 160.5C2041.35 194.046 2051.6 221.23 2072.08 242.051C2092.57 262.873 2119.11 273.284 2151.72 273.284C2184.03 273.284 2210.44 262.873 2230.92 242.051C2251.7 221.23 2262.08 194.046 2262.08 160.5C2262.08 126.954 2251.7 99.7703 2230.92 78.9486C2210.44 58.127 2184.03 47.7162 2151.72 47.7162C2119.11 47.7162 2092.57 58.127 2072.08 78.9486Z" fill="white"/>
<path d="M2363.83 312.324V8.67567H2495.83C2531.61 8.67567 2560.03 17.9297 2581.09 36.4378C2602.16 54.9459 2612.69 78.2257 2612.69 106.277C2612.69 128.545 2605.76 148.209 2591.91 165.272C2578.35 182.045 2559.31 193.468 2534.78 199.541L2610.52 312.324H2552.1L2480.68 203.878H2413.6V312.324H2363.83ZM2413.6 156.162H2495.83C2539.11 156.162 2560.75 139.534 2560.75 106.277C2560.75 73.0203 2539.11 56.3919 2495.83 56.3919H2413.6V156.162Z" fill="white"/>
<path d="M2664.81 312.324V8.67567H2714.58V134.473H2764.36L2855.24 8.67567H2913.67L2807.64 153.993L2918 312.324H2857.41L2766.52 182.189H2714.58V312.324H2664.81Z" fill="white"/>
</svg>
